<?xml version="1.0" standalone="no"?><!DOCTYPE svg PUBLIC "-//W3C//DTD SVG 1.1//EN" "http://www.w3.org/Graphics/SVG/1.1/DTD/svg11.dtd"><svg class="icon" width="200px" height="193.94px" viewBox="0 0 1056 1024" version="1.1" xmlns="http://www.w3.org/2000/svg"><path fill="#d81e06" d="M713.696 844.576c-267.808 154.624-570.88 131.104-676.928-52.576s25.12-457.952 292.96-612.576c267.84-154.624 570.88-131.136 676.96 52.576 106.048 183.648-25.12 457.92-292.992 612.576zM80.32 551.424c-25.056 75.392-23.392 149.184 11.68 209.984 35.104 60.768 98.144 99.104 176 115.072l-187.68-325.056zM654.688 143.072c-92.8 6.08-195.168 36.672-293.152 93.216-99.68 57.6-178.464 132.544-230.112 211.392l252 436.48c94.112-5.312 198.4-36.032 298.144-93.6 97.952-56.576 175.616-129.952 227.328-207.296l-254.208-440.192zM961.824 478.176c26.048-76.384 24.8-151.232-10.688-212.768-35.552-61.568-99.744-100.032-178.944-115.648l189.632 328.416zM550.56 601.952l-25.952 15.008-31.04-53.696-0.128 0.064-29.312 16.928 31.008 53.696-25.984 15.008-31.008-53.696-0.128 0.064-29.312 16.928 31.008 53.696-25.984 15.008-31.008-53.728-0.128 0.096-55.424 32-16-27.712 55.552-32.096-32.384-56.096 25.984-15.008 32.416 56.096 29.44-16.992-32.416-56.16 25.984-14.976 32.416 56.096 29.44-16.992-32.384-56.128 25.984-14.976 32.416 56.096 29.44-16.992-32.384-56.128 25.984-14.976 32.384 56.096 29.44-16.992-32.384-56.096 25.952-15.008 32.448 56.096 29.44-16.992-32.448-56.128 25.984-14.976 32.384 56.096 57.888-33.376 16 27.712-57.888 33.408 31.008 53.696-25.952 15.008-31.008-53.696-29.44 16.992 31.008 53.696-25.984 15.008-31.008-53.696-0.128 0.064-29.312 16.928 31.008 53.696-25.984 15.008-31.008-53.696-0.128 0.064-29.312 16.928 30.944 53.728z"  /></svg>